<?xml version="1.0" encoding="UTF-8"?>
<svg id="Capa_2" data-name="Capa 2" xmlns="http://www.w3.org/2000/svg" viewBox="0 0 855.39 637.8">
  <defs>
    <style>
      .cls-1 {
        fill: #8a8c8c;
      }

      .cls-2 {
        fill: #b1b3b3;
      }

      .cls-3 {
        fill: #cbcccd;
      }
    </style>
  </defs>
  <g id="BACKGROUND2">
    <path class="cls-3" d="M369.17,354.58l-37.5-37.5c-8.98-8.98-23.53-8.98-32.5,0l-37.5,37.5c-8.98,8.98-8.98,23.53,0,32.5l37.5,37.5c8.98,8.98,23.53,8.98,32.5,0l37.5-37.5c8.98-8.98,8.98-23.53,0-32.5ZM353.62,371.53l-37.5,37.5c-.09.09-.29.29-.7.29s-.61-.2-.7-.29l-37.5-37.5c-.38-.38-.38-1.01,0-1.39l37.5-37.5c.09-.09.29-.29.7-.29s.61.2.7.29l37.5,37.5c.38.38.38,1.01,0,1.39Z"/>
    <path class="cls-3" d="M414.78,423.39l-23.79-23.79c-5.69-5.69-14.93-5.69-20.62,0l-23.79,23.79c-5.69,5.69-5.69,14.93,0,20.62l23.79,23.79c5.69,5.69,14.93,5.69,20.62,0l23.79-23.79c5.69-5.69,5.69-14.93,0-20.62ZM404.91,434.14l-23.79,23.79c-.05.05-.18.18-.44.18s-.39-.13-.44-.18l-23.79-23.79c-.24-.24-.24-.64,0-.88l23.79-23.79c.05-.05.18-.18.44-.18s.39.13.44.18l23.79,23.79c.24.24.24.64,0,.88Z"/>
    <path class="cls-3" d="M229.4,545.3l-23.79-23.79c-5.69-5.69-14.93-5.69-20.62,0l-23.79,23.79c-5.69,5.69-5.69,14.93,0,20.62l23.79,23.79c5.69,5.69,14.93,5.69,20.62,0l23.79-23.79c5.69-5.69,5.69-14.93,0-20.62ZM219.54,556.05l-23.79,23.79c-.05.05-.18.18-.44.18s-.39-.13-.44-.18l-23.79-23.79c-.24-.24-.24-.64,0-.88l23.79-23.79c.05-.05.18-.18.44-.18s.39.13.44.18l23.79,23.79c.24.24.24.64,0,.88Z"/>
    <path class="cls-3" d="M453.15,306.52l-23.79-23.79c-5.69-5.69-14.93-5.69-20.62,0l-23.79,23.79c-5.69,5.69-5.69,14.93,0,20.62l23.79,23.79c5.69,5.69,14.93,5.69,20.62,0l23.79-23.79c5.69-5.69,5.69-14.93,0-20.62ZM443.28,317.27l-23.79,23.79c-.05.05-.18.18-.44.18s-.39-.13-.44-.18l-23.79-23.79c-.24-.24-.24-.64,0-.88l23.79-23.79c.05-.05.18-.18.44-.18s.39.13.44.18l23.79,23.79c.24.24.24.64,0,.88Z"/>
    <path class="cls-3" d="M533.07,261.27l-15.16-15.16c-3.63-3.63-9.51-3.63-13.14,0l-15.16,15.16c-3.63,3.63-3.63,9.51,0,13.14l15.16,15.16c3.63,3.63,9.51,3.63,13.14,0l15.16-15.16c3.63-3.63,3.63-9.51,0-13.14ZM526.78,268.12l-15.16,15.16s-.12.12-.28.12-.25-.08-.28-.12l-15.16-15.16c-.16-.16-.16-.41,0-.56l15.16-15.16s.12-.12.28-.12.25.08.28.12l15.16,15.16c.16.16.16.41,0,.56Z"/>
    <path class="cls-3" d="M578.33,360.4l-15.16-15.16c-3.63-3.63-9.51-3.63-13.14,0l-15.16,15.16c-3.63,3.63-3.63,9.51,0,13.14l15.16,15.16c3.63,3.63,9.51,3.63,13.14,0l15.16-15.16c3.63-3.63,3.63-9.51,0-13.14ZM572.04,367.25l-15.16,15.16s-.12.12-.28.12-.25-.08-.28-.12l-15.16-15.16c-.16-.16-.16-.41,0-.56l15.16-15.16s.12-.12.28-.12.25.08.28.12l15.16,15.16c.16.16.16.41,0,.56Z"/>
    <path class="cls-3" d="M651.66,311.73l-11.27-11.27c-2.7-2.7-7.07-2.7-9.77,0l-11.27,11.27c-2.7,2.7-2.7,7.07,0,9.77l11.27,11.27c2.7,2.7,7.07,2.7,9.77,0l11.27-11.27c2.7-2.7,2.7-7.07,0-9.77ZM646.98,316.83l-11.27,11.27s-.09.09-.21.09-.18-.06-.21-.09l-11.27-11.27c-.12-.12-.12-.3,0-.42l11.27-11.27s.09-.09.21-.09.18.06.21.09l11.27,11.27c.12.12.12.3,0,.42Z"/>
    <path class="cls-3" d="M495.71,227.14l-11.27-11.27c-2.7-2.7-7.07-2.7-9.77,0l-11.27,11.27c-2.7,2.7-2.7,7.07,0,9.77l11.27,11.27c2.7,2.7,7.07,2.7,9.77,0l11.27-11.27c2.7-2.7,2.7-7.07,0-9.77ZM491.04,232.24l-11.27,11.27s-.09.09-.21.09-.18-.06-.21-.09l-11.27-11.27c-.12-.12-.12-.3,0-.42l11.27-11.27s.09-.09.21-.09.18.06.21.09l11.27,11.27c.12.12.12.3,0,.42Z"/>
    <path class="cls-3" d="M289.27,104.3l-11.27-11.27c-2.7-2.7-7.07-2.7-9.77,0l-11.27,11.27c-2.7,2.7-2.7,7.07,0,9.77l11.27,11.27c2.7,2.7,7.07,2.7,9.77,0l11.27-11.27c2.7-2.7,2.7-7.07,0-9.77ZM284.59,109.39l-11.27,11.27s-.09.09-.21.09-.18-.06-.21-.09l-11.27-11.27c-.12-.12-.12-.3,0-.42l11.27-11.27s.09-.09.21-.09.18.06.21.09l11.27,11.27c.12.12.12.3,0,.42Z"/>
    <path class="cls-3" d="M229.64,443.8l-11.27-11.27c-2.7-2.7-7.07-2.7-9.77,0l-11.27,11.27c-2.7,2.7-2.7,7.07,0,9.77l11.27,11.27c2.7,2.7,7.07,2.7,9.77,0l11.27-11.27c2.7-2.7,2.7-7.07,0-9.77ZM224.96,448.89l-11.27,11.27s-.09.09-.21.09-.18-.06-.21-.09l-11.27-11.27c-.12-.12-.12-.3,0-.42l11.27-11.27s.09-.09.21-.09.18.06.21.09l11.27,11.27c.12.12.12.3,0,.42Z"/>
    <path class="cls-3" d="M695.29,333.02l-11.27-11.27c-2.7-2.7-7.07-2.7-9.77,0l-11.27,11.27c-2.7,2.7-2.7,7.07,0,9.77l11.27,11.27c2.7,2.7,7.07,2.7,9.77,0l11.27-11.27c2.7-2.7,2.7-7.07,0-9.77ZM690.62,338.12l-11.27,11.27s-.09.09-.21.09-.18-.06-.21-.09l-11.27-11.27c-.12-.12-.12-.3,0-.42l11.27-11.27s.09-.09.21-.09.18.06.21.09l11.27,11.27c.12.12.12.3,0,.42Z"/>
    <path class="cls-3" d="M423.62,196.35l-11.27-11.27c-2.7-2.7-7.07-2.7-9.77,0l-11.27,11.27c-2.7,2.7-2.7,7.07,0,9.77l11.27,11.27c2.7,2.7,7.07,2.7,9.77,0l11.27-11.27c2.7-2.7,2.7-7.07,0-9.77ZM418.95,201.44l-11.27,11.27s-.09.09-.21.09-.18-.06-.21-.09l-11.27-11.27c-.12-.12-.12-.3,0-.42l11.27-11.27s.09-.09.21-.09.18.06.21.09l11.27,11.27c.12.12.12.3,0,.42Z"/>
    <path class="cls-3" d="M747.81,337.97l-6.6-6.6c-1.58-1.58-4.14-1.58-5.72,0l-6.6,6.6c-1.58,1.58-1.58,4.14,0,5.72l6.6,6.6c1.58,1.58,4.14,1.58,5.72,0l6.6-6.6c1.58-1.58,1.58-4.14,0-5.72ZM745.07,340.95l-6.6,6.6s-.05.05-.12.05-.11-.04-.12-.05l-6.6-6.6c-.07-.07-.07-.18,0-.24l6.6-6.6s.05-.05.12-.05.11.04.12.05l6.6,6.6c.07.07.07.18,0,.24Z"/>
    <path class="cls-3" d="M812.15,346.8l-5.21-5.21c-1.25-1.25-3.27-1.25-4.51,0l-5.21,5.21c-1.25,1.25-1.25,3.27,0,4.51l5.21,5.21c1.25,1.25,3.27,1.25,4.51,0l5.21-5.21c1.25-1.25,1.25-3.27,0-4.51ZM809.99,349.15l-5.21,5.21s-.04.04-.1.04-.08-.03-.1-.04l-5.21-5.21c-.05-.05-.05-.14,0-.19l5.21-5.21s.04-.04.1-.04.08.03.1.04l5.21,5.21c.05.05.05.14,0,.19Z"/>
    <path class="cls-3" d="M377.68,180.52l-43.43-43.43c-10.4-10.4-27.25-10.4-37.65,0l-43.43,43.43c-10.4,10.4-10.4,27.25,0,37.65l43.43,43.43c10.4,10.4,27.25,10.4,37.65,0l43.43-43.43c10.4-10.4,10.4-27.25,0-37.65ZM359.66,200.15l-43.43,43.43c-.1.1-.33.33-.81.33s-.71-.23-.81-.33l-43.43-43.43c-.44-.44-.44-1.17,0-1.61l43.43-43.43c.1-.1.33-.33.81-.33s.71.23.81.33l43.43,43.43c.44.44.44,1.17,0,1.61Z"/>
    <path class="cls-3" d="M226.76,323.07l-74.44-74.44c-17.82-17.82-46.7-17.82-64.52,0L13.36,323.07c-17.82,17.82-17.82,46.7,0,64.52l74.44,74.44c17.82,17.82,46.7,17.82,64.52,0l74.44-74.44c17.82-17.82,17.82-46.7,0-64.52ZM195.88,356.71l-74.44,74.44c-.17.17-.57.57-1.38.57s-1.21-.4-1.38-.57l-74.44-74.44c-.76-.76-.76-2,0-2.76l74.44-74.44c.17-.17.57-.57,1.38-.57s1.21.4,1.38.57l74.44,74.44c.76.76.76,2,0,2.76Z"/>
    <path class="cls-3" d="M169.34,116.3l-39.76-39.76c-9.52-9.52-24.95-9.52-34.46,0l-39.76,39.76c-9.52,9.52-9.52,24.95,0,34.46l39.76,39.76c9.52,9.52,24.95,9.52,34.46,0l39.76-39.76c9.52-9.52,9.52-24.95,0-34.46ZM152.85,134.27l-39.76,39.76c-.09.09-.31.31-.74.31s-.65-.21-.74-.31l-39.76-39.76c-.41-.41-.41-1.07,0-1.48l39.76-39.76c.09-.09.31-.31.74-.31s.65.21.74.31l39.76,39.76c.41.41.41,1.07,0,1.48Z"/>
    <path class="cls-2" d="M288.66,423.6l-57.88-57.88c-13.85-13.85-36.31-13.85-50.16,0l-57.88,57.88c-13.85,13.85-13.85,36.31,0,50.16l57.88,57.88c13.85,13.85,36.31,13.85,50.16,0l57.88-57.88c13.85-13.85,13.85-36.31,0-50.16ZM264.65,449.75l-57.88,57.88c-.13.13-.44.44-1.07.44s-.94-.31-1.07-.44l-57.88-57.88c-.59-.59-.59-1.56,0-2.15l57.88-57.88c.13-.13.44-.44,1.07-.44s.94.31,1.07.44l57.88,57.88c.59.59.59,1.56,0,2.15Z"/>
    <path class="cls-2" d="M412.73,321.99l-31.94-31.94c-7.65-7.65-20.04-7.65-27.69,0l-31.94,31.94c-7.65,7.65-7.65,20.04,0,27.69l31.94,31.94c7.65,7.65,20.04,7.65,27.69,0l31.94-31.94c7.65-7.65,7.65-20.04,0-27.69ZM399.48,336.42l-31.94,31.94c-.07.07-.25.25-.59.25s-.52-.17-.59-.25l-31.94-31.94c-.33-.33-.33-.86,0-1.19l31.94-31.94c.07-.07.25-.25.59-.25s.52.17.59.25l31.94,31.94c.33.33.33.86,0,1.19Z"/>
    <path class="cls-1" d="M369.17,286.58l-37.5-37.5c-8.98-8.98-23.53-8.98-32.5,0l-37.5,37.5c-8.98,8.98-8.98,23.53,0,32.5l37.5,37.5c8.98,8.98,23.53,8.98,32.5,0l37.5-37.5c8.98-8.98,8.98-23.53,0-32.5ZM353.62,303.53l-37.5,37.5c-.09.09-.29.29-.7.29s-.61-.2-.7-.29l-37.5-37.5c-.38-.38-.38-1.01,0-1.39l37.5-37.5c.09-.09.29-.29.7-.29s.61.2.7.29l37.5,37.5c.38.38.38,1.01,0,1.39Z"/>
    <path class="cls-1" d="M494.92,255.02l-37.5-37.5c-8.98-8.98-23.53-8.98-32.5,0l-37.5,37.5c-8.98,8.98-8.98,23.53,0,32.5l37.5,37.5c8.98,8.98,23.53,8.98,32.5,0l37.5-37.5c8.98-8.98,8.98-23.53,0-32.5ZM479.36,271.97l-37.5,37.5c-.09.09-.29.29-.7.29s-.61-.2-.7-.29l-37.5-37.5c-.38-.38-.38-1.01,0-1.39l37.5-37.5c.09-.09.29-.29.7-.29s.61.2.7.29l37.5,37.5c.38.38.38,1.01,0,1.39Z"/>
    <path class="cls-2" d="M248.93,44.23L211.43,6.73c-8.98-8.98-23.53-8.98-32.5,0l-37.5,37.5c-8.98,8.98-8.98,23.53,0,32.5l37.5,37.5c8.98,8.98,23.53,8.98,32.5,0l37.5-37.5c8.98-8.98,8.98-23.53,0-32.5ZM233.37,61.18l-37.5,37.5c-.09.09-.29.29-.7.29s-.61-.2-.7-.29l-37.5-37.5c-.38-.38-.38-1.01,0-1.39l37.5-37.5c.09-.09.29-.29.7-.29s.61.2.7.29l37.5,37.5c.38.38.38,1.01,0,1.39Z"/>
    <path class="cls-1" d="M197.07,561.06l-37.5-37.5c-8.98-8.98-23.53-8.98-32.5,0l-37.5,37.5c-8.98,8.98-8.98,23.53,0,32.5l37.5,37.5c8.98,8.98,23.53,8.98,32.5,0l37.5-37.5c8.98-8.98,8.98-23.53,0-32.5ZM181.51,578.01l-37.5,37.5c-.09.09-.29.29-.7.29s-.61-.2-.7-.29l-37.5-37.5c-.38-.38-.38-1.01,0-1.39l37.5-37.5c.09-.09.29-.29.7-.29s.61.2.7.29l37.5,37.5c.38.38.38,1.01,0,1.39Z"/>
    <path class="cls-1" d="M510.43,338.01l-18.81-18.81c-4.5-4.5-11.8-4.5-16.31,0l-18.81,18.81c-4.5,4.5-4.5,11.8,0,16.31l18.81,18.81c4.5,4.5,11.8,4.5,16.31,0l18.81-18.81c4.5-4.5,4.5-11.8,0-16.31ZM502.62,346.52l-18.81,18.81s-.14.14-.35.14-.31-.1-.35-.14l-18.81-18.81c-.19-.19-.19-.51,0-.7l18.81-18.81s.14-.14.35-.14.31.1.35.14l18.81,18.81c.19.19.19.51,0,.7Z"/>
    <path class="cls-1" d="M355.5,431.53l-18.81-18.81c-4.5-4.5-11.8-4.5-16.31,0l-18.81,18.81c-4.5,4.5-4.5,11.8,0,16.31l18.81,18.81c4.5,4.5,11.8,4.5,16.31,0l18.81-18.81c4.5-4.5,4.5-11.8,0-16.31ZM347.69,440.03l-18.81,18.81s-.14.14-.35.14-.31-.1-.35-.14l-18.81-18.81c-.19-.19-.19-.51,0-.7l18.81-18.81s.14-.14.35-.14.31.1.35.14l18.81,18.81c.19.19.19.51,0,.7Z"/>
    <path class="cls-1" d="M170.29,347.93l-18.81-18.81c-4.5-4.5-11.8-4.5-16.31,0l-18.81,18.81c-4.5,4.5-4.5,11.8,0,16.31l18.81,18.81c4.5,4.5,11.8,4.5,16.31,0l18.81-18.81c4.5-4.5,4.5-11.8,0-16.31ZM162.48,356.44l-18.81,18.81s-.14.14-.35.14-.31-.1-.35-.14l-18.81-18.81c-.19-.19-.19-.51,0-.7l18.81-18.81s.14-.14.35-.14.31.1.35.14l18.81,18.81c.19.19.19.51,0,.7Z"/>
    <path class="cls-1" d="M594.66,305.32l-18.81-18.81c-4.5-4.5-11.8-4.5-16.31,0l-18.81,18.81c-4.5,4.5-4.5,11.8,0,16.31l18.81,18.81c4.5,4.5,11.8,4.5,16.31,0l18.81-18.81c4.5-4.5,4.5-11.8,0-16.31ZM586.85,313.82l-18.81,18.81s-.14.14-.35.14-.31-.1-.35-.14l-18.81-18.81c-.19-.19-.19-.51,0-.7l18.81-18.81s.14-.14.35-.14.31.1.35.14l18.81,18.81c.19.19.19.51,0,.7Z"/>
    <path class="cls-1" d="M634.74,365.57l-12.15-12.15c-2.91-2.91-7.62-2.91-10.53,0l-12.15,12.15c-2.91,2.91-2.91,7.62,0,10.53l12.15,12.15c2.91,2.91,7.62,2.91,10.53,0l12.15-12.15c2.91-2.91,2.91-7.62,0-10.53ZM629.7,371.06l-12.15,12.15s-.09.09-.23.09-.2-.07-.23-.09l-12.15-12.15c-.12-.12-.12-.33,0-.45l12.15-12.15s.09-.09.23-.09.2.07.23.09l12.15,12.15c.12.12.12.33,0,.45Z"/>
    <path class="cls-1" d="M199.92,475.41l-12.15-12.15c-2.91-2.91-7.62-2.91-10.53,0l-12.15,12.15c-2.91,2.91-2.91,7.62,0,10.53l12.15,12.15c2.91,2.91,7.62,2.91,10.53,0l12.15-12.15c2.91-2.91,2.91-7.62,0-10.53ZM194.88,480.9l-12.15,12.15s-.09.09-.23.09-.2-.07-.23-.09l-12.15-12.15c-.12-.12-.12-.33,0-.45l12.15-12.15s.09-.09.23-.09.2.07.23.09l12.15,12.15c.12.12.12.33,0,.45Z"/>
    <path class="cls-1" d="M470.53,407.76l-12.15-12.15c-2.91-2.91-7.62-2.91-10.53,0l-12.15,12.15c-2.91,2.91-2.91,7.62,0,10.53l12.15,12.15c2.91,2.91,7.62,2.91,10.53,0l12.15-12.15c2.91-2.91,2.91-7.62,0-10.53ZM465.49,413.25l-12.15,12.15s-.09.09-.23.09-.2-.07-.23-.09l-12.15-12.15c-.12-.12-.12-.33,0-.45l12.15-12.15s.09-.09.23-.09.2.07.23.09l12.15,12.15c.12.12.12.33,0,.45Z"/>
    <path class="cls-1" d="M707.09,337.4l-6.82-6.82c-1.63-1.63-4.28-1.63-5.91,0l-6.82,6.82c-1.63,1.63-1.63,4.28,0,5.91l6.82,6.82c1.63,1.63,4.28,1.63,5.91,0l6.82-6.82c1.63-1.63,1.63-4.28,0-5.91ZM704.26,340.48l-6.82,6.82s-.05.05-.13.05-.11-.04-.13-.05l-6.82-6.82c-.07-.07-.07-.18,0-.25l6.82-6.82s.05-.05.13-.05.11.04.13.05l6.82,6.82c.07.07.07.18,0,.25Z"/>
    <path class="cls-1" d="M777.3,357.57l-6.82-6.82c-1.63-1.63-4.28-1.63-5.91,0l-6.82,6.82c-1.63,1.63-1.63,4.28,0,5.91l6.82,6.82c1.63,1.63,4.28,1.63,5.91,0l6.82-6.82c1.63-1.63,1.63-4.28,0-5.91ZM774.47,360.65l-6.82,6.82s-.05.05-.13.05-.11-.04-.13-.05l-6.82-6.82c-.07-.07-.07-.18,0-.25l6.82-6.82s.05-.05.13-.05.11.04.13.05l6.82,6.82c.07.07.07.18,0,.25Z"/>
    <path class="cls-1" d="M787.48,347.92l-2.94-2.94c-.7-.7-1.85-.7-2.55,0l-2.94,2.94c-.7.7-.7,1.85,0,2.55l2.94,2.94c.7.7,1.85.7,2.55,0l2.94-2.94c.7-.7.7-1.85,0-2.55ZM786.26,349.25l-2.94,2.94s-.02.02-.05.02-.05-.02-.05-.02l-2.94-2.94s-.03-.08,0-.11l2.94-2.94s.02-.02.05-.02.05.02.05.02l2.94,2.94s.03.08,0,.11Z"/>
    <path class="cls-1" d="M654.46,359.25l-2.94-2.94c-.7-.7-1.85-.7-2.55,0l-2.94,2.94c-.7.7-.7,1.85,0,2.55l2.94,2.94c.7.7,1.85.7,2.55,0l2.94-2.94c.7-.7.7-1.85,0-2.55ZM653.24,360.58l-2.94,2.94s-.02.02-.05.02-.05-.02-.05-.02l-2.94-2.94s-.03-.08,0-.11l2.94-2.94s.02-.02.05-.02.05.02.05.02l2.94,2.94s.03.08,0,.11Z"/>
    <path class="cls-3" d="M597.02,334.56l-2.94-2.94c-.7-.7-1.85-.7-2.55,0l-2.94,2.94c-.7.7-.7,1.85,0,2.55l2.94,2.94c.7.7,1.85.7,2.55,0l2.94-2.94c.7-.7.7-1.85,0-2.55ZM595.8,335.89l-2.94,2.94s-.02.02-.05.02-.05-.02-.05-.02l-2.94-2.94s-.03-.08,0-.11l2.94-2.94s.02-.02.05-.02.05.02.05.02l2.94,2.94s.03.08,0,.11Z"/>
    <path class="cls-3" d="M517.03,369.56l-2.94-2.94c-.7-.7-1.85-.7-2.55,0l-2.94,2.94c-.7.7-.7,1.85,0,2.55l2.94,2.94c.7.7,1.85.7,2.55,0l2.94-2.94c.7-.7.7-1.85,0-2.55ZM515.81,370.89l-2.94,2.94s-.02.02-.05.02-.05-.02-.05-.02l-2.94-2.94s-.03-.08,0-.11l2.94-2.94s.02-.02.05-.02.05.02.05.02l2.94,2.94s.03.08,0,.11Z"/>
    <path class="cls-3" d="M580.59,304.81l-2.94-2.94c-.7-.7-1.85-.7-2.55,0l-2.94,2.94c-.7.7-.7,1.85,0,2.55l2.94,2.94c.7.7,1.85.7,2.55,0l2.94-2.94c.7-.7.7-1.85,0-2.55ZM579.37,306.14l-2.94,2.94s-.02.02-.05.02-.05-.02-.05-.02l-2.94-2.94s-.03-.08,0-.11l2.94-2.94s.02-.02.05-.02.05.02.05.02l2.94,2.94s.03.08,0,.11Z"/>
    <path class="cls-1" d="M621.54,293.81l-2.94-2.94c-.7-.7-1.85-.7-2.55,0l-2.94,2.94c-.7.7-.7,1.85,0,2.55l2.94,2.94c.7.7,1.85.7,2.55,0l2.94-2.94c.7-.7.7-1.85,0-2.55ZM620.32,295.14l-2.94,2.94s-.02.02-.05.02-.05-.02-.05-.02l-2.94-2.94s-.03-.08,0-.11l2.94-2.94s.02-.02.05-.02.05.02.05.02l2.94,2.94s.03.08,0,.11Z"/>
    <path class="cls-1" d="M451.04,262.52l-2.94-2.94c-.7-.7-1.85-.7-2.55,0l-2.94,2.94c-.7.7-.7,1.85,0,2.55l2.94,2.94c.7.7,1.85.7,2.55,0l2.94-2.94c.7-.7.7-1.85,0-2.55ZM449.82,263.85l-2.94,2.94s-.02.02-.05.02-.05-.02-.05-.02l-2.94-2.94s-.03-.08,0-.11l2.94-2.94s.02-.02.05-.02.05.02.05.02l2.94,2.94s.03.08,0,.11Z"/>
    <path class="cls-1" d="M319.64,382.3l-2.94-2.94c-.7-.7-1.85-.7-2.55,0l-2.94,2.94c-.7.7-.7,1.85,0,2.55l2.94,2.94c.7.7,1.85.7,2.55,0l2.94-2.94c.7-.7.7-1.85,0-2.55ZM318.42,383.63l-2.94,2.94s-.02.02-.05.02-.05-.02-.05-.02l-2.94-2.94s-.03-.08,0-.11l2.94-2.94s.02-.02.05-.02.05.02.05.02l2.94,2.94s.03.08,0,.11Z"/>
    <path class="cls-3" d="M792.23,362.43l-2.94-2.94c-.7-.7-1.85-.7-2.55,0l-2.94,2.94c-.7.7-.7,1.85,0,2.55l2.94,2.94c.7.7,1.85.7,2.55,0l2.94-2.94c.7-.7.7-1.85,0-2.55ZM791.01,363.76l-2.94,2.94s-.02.02-.05.02-.05-.02-.05-.02l-2.94-2.94s-.03-.08,0-.11l2.94-2.94s.02-.02.05-.02.05.02.05.02l2.94,2.94s.03.08,0,.11Z"/>
    <path class="cls-1" d="M843.31,355.36l-4.82-4.82c-1.15-1.15-3.03-1.15-4.18,0l-4.82,4.82c-1.15,1.15-1.15,3.03,0,4.18l4.82,4.82c1.15,1.15,3.03,1.15,4.18,0l4.82-4.82c1.15-1.15,1.15-3.03,0-4.18ZM841.31,357.54l-4.82,4.82s-.04.04-.09.04-.08-.03-.09-.04l-4.82-4.82s-.05-.13,0-.18l4.82-4.82s.04-.04.09-.04.08.03.09.04l4.82,4.82s.05.13,0,.18Z"/>
    <path class="cls-1" d="M556.28,408.88l-6.82-6.82c-1.63-1.63-4.28-1.63-5.91,0l-6.82,6.82c-1.63,1.63-1.63,4.28,0,5.91l6.82,6.82c1.63,1.63,4.28,1.63,5.91,0l6.82-6.82c1.63-1.63,1.63-4.28,0-5.91ZM553.45,411.96l-6.82,6.82s-.05.05-.13.05-.11-.04-.13-.05l-6.82-6.82c-.07-.07-.07-.18,0-.25l6.82-6.82s.05-.05.13-.05.11.04.13.05l6.82,6.82c.07.07.07.18,0,.25Z"/>
    <path class="cls-1" d="M428.24,375.88l-6.82-6.82c-1.63-1.63-4.28-1.63-5.91,0l-6.82,6.82c-1.63,1.63-1.63,4.28,0,5.91l6.82,6.82c1.63,1.63,4.28,1.63,5.91,0l6.82-6.82c1.63-1.63,1.63-4.28,0-5.91ZM425.41,378.96l-6.82,6.82s-.05.05-.13.05-.11-.04-.13-.05l-6.82-6.82c-.07-.07-.07-.18,0-.25l6.82-6.82s.05-.05.13-.05.11.04.13.05l6.82,6.82c.07.07.07.18,0,.25Z"/>
    <path class="cls-1" d="M325.2,292.13l-6.82-6.82c-1.63-1.63-4.28-1.63-5.91,0l-6.82,6.82c-1.63,1.63-1.63,4.28,0,5.91l6.82,6.82c1.63,1.63,4.28,1.63,5.91,0l6.82-6.82c1.63-1.63,1.63-4.28,0-5.91ZM322.37,295.21l-6.82,6.82s-.05.05-.13.05-.11-.04-.13-.05l-6.82-6.82c-.07-.07-.07-.18,0-.25l6.82-6.82s.05-.05.13-.05.11.04.13.05l6.82,6.82c.07.07.07.18,0,.25Z"/>
    <path class="cls-1" d="M226.48,239.07l-6.82-6.82c-1.63-1.63-4.28-1.63-5.91,0l-6.82,6.82c-1.63,1.63-1.63,4.28,0,5.91l6.82,6.82c1.63,1.63,4.28,1.63,5.91,0l6.82-6.82c1.63-1.63,1.63-4.28,0-5.91ZM223.65,242.15l-6.82,6.82s-.05.05-.13.05-.11-.04-.13-.05l-6.82-6.82c-.07-.07-.07-.18,0-.25l6.82-6.82s.05-.05.13-.05.11.04.13.05l6.82,6.82c.07.07.07.18,0,.25Z"/>
    <path class="cls-1" d="M317.47,199.14l-61.61-61.61c-14.75-14.75-38.65-14.75-53.4,0l-61.61,61.61c-14.75,14.75-14.75,38.65,0,53.4l61.61,61.61c14.75,14.75,38.65,14.75,53.4,0l61.61-61.61c14.75-14.75,14.75-38.65,0-53.4ZM291.91,226.98l-61.61,61.61c-.14.14-.47.47-1.14.47s-1-.33-1.14-.47l-61.61-61.61c-.63-.63-.63-1.66,0-2.29l61.61-61.61c.14-.14.47-.47,1.14-.47s1,.33,1.14.47l61.61,61.61c.63.63.63,1.66,0,2.29Z"/>
    <path class="cls-2" d="M522.61,380.63l-24.88-24.88c-5.95-5.95-15.61-5.95-21.56,0l-24.88,24.88c-5.95,5.95-5.95,15.61,0,21.56l24.88,24.88c5.95,5.95,15.61,5.95,21.56,0l24.88-24.88c5.95-5.95,5.95-15.61,0-21.56ZM512.29,391.87l-24.88,24.88c-.06.06-.19.19-.46.19s-.4-.13-.46-.19l-24.88-24.88c-.25-.25-.25-.67,0-.92l24.88-24.88c.06-.06.19-.19.46-.19s.4.13.46.19l24.88,24.88c.25.25.25.67,0,.92Z"/>
    <path class="cls-2" d="M606.59,368.6l-16.1-16.1c-3.85-3.85-10.1-3.85-13.95,0l-16.1,16.1c-3.85,3.85-3.85,10.1,0,13.95l16.1,16.1c3.85,3.85,10.1,3.85,13.95,0l16.1-16.1c3.85-3.85,3.85-10.1,0-13.95ZM599.92,375.88l-16.1,16.1s-.12.12-.3.12-.26-.09-.3-.12l-16.1-16.1c-.16-.16-.16-.43,0-.6l16.1-16.1s.12-.12.3-.12.26.09.3.12l16.1,16.1c.16.16.16.43,0,.6Z"/>
    <path class="cls-2" d="M557.73,309.86l-16.1-16.1c-3.85-3.85-10.1-3.85-13.95,0l-16.1,16.1c-3.85,3.85-3.85,10.1,0,13.95l16.1,16.1c3.85,3.85,10.1,3.85,13.95,0l16.1-16.1c3.85-3.85,3.85-10.1,0-13.95ZM551.06,317.13l-16.1,16.1s-.12.12-.3.12-.26-.09-.3-.12l-16.1-16.1c-.16-.16-.16-.43,0-.6l16.1-16.1s.12-.12.3-.12.26.09.3.12l16.1,16.1c.16.16.16.43,0,.6Z"/>
    <path class="cls-2" d="M390.02,230.86l-16.1-16.1c-3.85-3.85-10.1-3.85-13.95,0l-16.1,16.1c-3.85,3.85-3.85,10.1,0,13.95l16.1,16.1c3.85,3.85,10.1,3.85,13.95,0l16.1-16.1c3.85-3.85,3.85-10.1,0-13.95ZM383.34,238.13l-16.1,16.1s-.12.12-.3.12-.26-.09-.3-.12l-16.1-16.1c-.16-.16-.16-.43,0-.6l16.1-16.1s.12-.12.3-.12.26.09.3.12l16.1,16.1c.16.16.16.43,0,.6Z"/>
    <path class="cls-2" d="M228.77,218.86l-16.1-16.1c-3.85-3.85-10.1-3.85-13.95,0l-16.1,16.1c-3.85,3.85-3.85,10.1,0,13.95l16.1,16.1c3.85,3.85,10.1,3.85,13.95,0l16.1-16.1c3.85-3.85,3.85-10.1,0-13.95ZM222.1,226.14l-16.1,16.1s-.12.12-.3.12-.26-.09-.3-.12l-16.1-16.1c-.16-.16-.16-.43,0-.6l16.1-16.1s.12-.12.3-.12.26.09.3.12l16.1,16.1c.16.16.16.43,0,.6Z"/>
    <path class="cls-2" d="M644.53,328.26l-9.98-9.98c-2.39-2.39-6.26-2.39-8.65,0l-9.98,9.98c-2.39,2.39-2.39,6.26,0,8.65l9.98,9.98c2.39,2.39,6.26,2.39,8.65,0l9.98-9.98c2.39-2.39,2.39-6.26,0-8.65ZM640.39,332.77l-9.98,9.98s-.08.08-.19.08-.16-.05-.19-.08l-9.98-9.98c-.1-.1-.1-.27,0-.37l9.98-9.98s.08-.08.19-.08.16.05.19.08l9.98,9.98c.1.1.1.27,0,.37Z"/>
    <path class="cls-2" d="M727.43,356.24l-6.28-6.28c-1.5-1.5-3.94-1.5-5.44,0l-6.28,6.28c-1.5,1.5-1.5,3.94,0,5.44l6.28,6.28c1.5,1.5,3.94,1.5,5.44,0l6.28-6.28c1.5-1.5,1.5-3.94,0-5.44ZM724.83,359.08l-6.28,6.28s-.05.05-.12.05-.1-.03-.12-.05l-6.28-6.28c-.06-.06-.06-.17,0-.23l6.28-6.28s.05-.05.12-.05.1.03.12.05l6.28,6.28c.06.06.06.17,0,.23Z"/>
    <path class="cls-2" d="M584.83,256.41l-6.28-6.28c-1.5-1.5-3.94-1.5-5.44,0l-6.28,6.28c-1.5,1.5-1.5,3.94,0,5.44l6.28,6.28c1.5,1.5,3.94,1.5,5.44,0l6.28-6.28c1.5-1.5,1.5-3.94,0-5.44ZM582.23,259.25l-6.28,6.28s-.05.05-.12.05-.1-.03-.12-.05l-6.28-6.28c-.06-.06-.06-.17,0-.23l6.28-6.28s.05-.05.12-.05.1.03.12.05l6.28,6.28c.06.06.06.17,0,.23Z"/>
    <path class="cls-2" d="M680.08,354.73l-6.28-6.28c-1.5-1.5-3.94-1.5-5.44,0l-6.28,6.28c-1.5,1.5-1.5,3.94,0,5.44l6.28,6.28c1.5,1.5,3.94,1.5,5.44,0l6.28-6.28c1.5-1.5,1.5-3.94,0-5.44ZM677.47,357.57l-6.28,6.28s-.05.05-.12.05-.1-.03-.12-.05l-6.28-6.28c-.06-.06-.06-.17,0-.23l6.28-6.28s.05-.05.12-.05.1.03.12.05l6.28,6.28c.06.06.06.17,0,.23Z"/>
    <path class="cls-2" d="M817.94,350.12l-3.14-3.14c-.75-.75-1.97-.75-2.72,0l-3.14,3.14c-.75.75-.75,1.97,0,2.72l3.14,3.14c.75.75,1.97.75,2.72,0l3.14-3.14c.75-.75.75-1.97,0-2.72ZM816.63,351.54l-3.14,3.14s-.02.02-.06.02-.05-.02-.06-.02l-3.14-3.14s-.03-.08,0-.12l3.14-3.14s.02-.02.06-.02.05.02.06.02l3.14,3.14s.03.08,0,.12Z"/>
    <path class="cls-2" d="M855.04,350.78l-1.94-1.94c-.46-.46-1.22-.46-1.68,0l-1.94,1.94c-.46.46-.46,1.22,0,1.68l1.94,1.94c.46.46,1.22.46,1.68,0l1.94-1.94c.46-.46.46-1.22,0-1.68ZM854.24,351.65l-1.94,1.94s-.01.01-.04.01-.03-.01-.04-.01l-1.94-1.94s-.02-.05,0-.07l1.94-1.94s.01-.01.04-.01.03.01.04.01l1.94,1.94s.02.05,0,.07Z"/>
    <path class="cls-2" d="M352.82,185.71l-5.15-5.15c-1.23-1.23-3.23-1.23-4.46,0l-5.15,5.15c-1.23,1.23-1.23,3.23,0,4.46l5.15,5.15c1.23,1.23,3.23,1.23,4.46,0l5.15-5.15c1.23-1.23,1.23-3.23,0-4.46ZM350.68,188.03l-5.15,5.15s-.04.04-.1.04-.08-.03-.1-.04l-5.15-5.15c-.05-.05-.05-.14,0-.19l5.15-5.15s.04-.04.1-.04.08.03.1.04l5.15,5.15c.05.05.05.14,0,.19Z"/>
    <path class="cls-2" d="M249.36,343.94l-5.15-5.15c-1.23-1.23-3.23-1.23-4.46,0l-5.15,5.15c-1.23,1.23-1.23,3.23,0,4.46l5.15,5.15c1.23,1.23,3.23,1.23,4.46,0l5.15-5.15c1.23-1.23,1.23-3.23,0-4.46ZM247.23,346.26l-5.15,5.15s-.04.04-.1.04-.08-.03-.1-.04l-5.15-5.15c-.05-.05-.05-.14,0-.19l5.15-5.15s.04-.04.1-.04.08.03.1.04l5.15,5.15c.05.05.05.14,0,.19Z"/>
    <path class="cls-2" d="M300.29,494.11l-6.28-6.28c-1.5-1.5-3.94-1.5-5.44,0l-6.28,6.28c-1.5,1.5-1.5,3.94,0,5.44l6.28,6.28c1.5,1.5,3.94,1.5,5.44,0l6.28-6.28c1.5-1.5,1.5-3.94,0-5.44ZM297.69,496.95l-6.28,6.28s-.05.05-.12.05-.1-.03-.12-.05l-6.28-6.28c-.06-.06-.06-.17,0-.23l6.28-6.28s.05-.05.12-.05.1.03.12.05l6.28,6.28c.06.06.06.17,0,.23Z"/>
    <path class="cls-2" d="M401.9,145.71l-6.28-6.28c-1.5-1.5-3.94-1.5-5.44,0l-6.28,6.28c-1.5,1.5-1.5,3.94,0,5.44l6.28,6.28c1.5,1.5,3.94,1.5,5.44,0l6.28-6.28c1.5-1.5,1.5-3.94,0-5.44ZM399.3,148.55l-6.28,6.28s-.05.05-.12.05-.1-.03-.12-.05l-6.28-6.28c-.06-.06-.06-.17,0-.23l6.28-6.28s.05-.05.12-.05.1.03.12.05l6.28,6.28c.06.06.06.17,0,.23Z"/>
  </g>
</svg>