<svg xmlns="http://www.w3.org/2000/svg" version="1.1" xmlns:xlink="http://www.w3.org/1999/xlink" xmlns:svgjs="http://svgjs.dev/svgjs" width="1440" height="560" preserveAspectRatio="none" viewBox="0 0 1440 560"><g mask="url(&quot;#SvgjsMask5817&quot;)" fill="none"><rect width="1440" height="560" x="0" y="0" fill="url(&quot;#SvgjsLinearGradient5818&quot;)"></rect><path d="M 0,179 C 72,170.6 216,137 360,137 C 504,137 576,201.8 720,179 C 864,156.2 936,16.2 1080,23 C 1224,29.8 1368,175 1440,213L1440 560L0 560z" fill="rgba(194, 14, 26, 1)"></path><path d="M 0,465 C 57.6,434.2 172.8,311.4 288,311 C 403.2,310.6 460.8,458.6 576,463 C 691.2,467.4 748.8,333.6 864,333 C 979.2,332.4 1036.8,452 1152,460 C 1267.2,468 1382.4,390.4 1440,373L1440 560L0 560z" fill="rgba(132, 31, 28, 1)"></path></g><defs><mask id="SvgjsMask5817"><rect width="1440" height="560" fill="#ffffff"></rect></mask><linearGradient x1="50%" y1="100%" x2="50%" y2="0%" gradientUnits="userSpaceOnUse" id="SvgjsLinearGradient5818"><stop stop-color="rgba(255, 0, 0, 0.46)" offset="0"></stop><stop stop-color="rgba(255, 0, 0, 0)" offset="1"></stop></linearGradient></defs></svg>